# Created using Spin3D

# Vertex Array
v -2.000 3.500 -16.500
v -2.000 0.000 -16.500
v -2.000 3.500 -13.500
v -2.000 0.000 -13.500
v 2.000 0.000 -16.500
v 2.000 3.500 -16.500
v 2.000 0.000 -13.500
v 2.000 3.500 -13.500
v 9.500 3.500 -16.500
v 9.500 -4.000 -16.500
v -9.500 -4.000 -16.500
v -9.500 3.500 -16.500
v -11.327 3.500 -15.313
v -11.232 3.500 -15.500
v -11.118 3.500 -15.676
v -10.986 3.500 -15.838
v -11.500 3.500 -13.500
v -11.500 3.500 -14.500
v -11.489 3.500 -14.709
v -11.456 3.500 -14.916
v -11.402 3.500 -15.118
v -10.838 3.500 -15.986
v -10.676 3.500 -16.118
v -10.500 3.500 -16.232
v -10.313 3.500 -16.327
v -10.118 3.500 -16.402
v -9.916 3.500 -16.456
v -9.709 3.500 -16.489
v -11.500 0.000 -13.500
v 11.500 -4.000 14.500
v 11.489 -4.000 14.709
v 11.500 -0.000 14.500
v 11.489 -0.000 14.709
v 11.456 -4.000 14.916
v 11.456 -0.000 14.916
v 11.402 -4.000 15.118
v 11.402 -0.000 15.118
v 11.327 -4.000 15.313
v 11.327 -0.000 15.313
v 11.232 -4.000 15.500
v 11.232 -0.000 15.500
v 11.118 -4.000 15.676
v 11.118 -0.000 15.676
v 10.986 -0.000 15.838
v 10.986 -4.000 15.838
v 10.838 -0.000 15.986
v 10.838 -4.000 15.986
v 10.676 -0.000 16.118
v 10.676 -4.000 16.118
v 10.500 -4.000 16.232
v 10.500 -0.000 16.232
v 10.313 -4.000 16.327
v 10.313 -0.000 16.327
v 10.118 -4.000 16.402
v 10.118 -0.000 16.402
v 9.916 -4.000 16.456
v 9.916 -0.000 16.456
v 9.709 -4.000 16.489
v 9.709 -0.000 16.489
v 9.500 -4.000 16.500
v 9.500 -0.000 16.500
v 9.500 0.000 -13.500
v 9.500 -0.000 0.000
v 11.500 -0.000 0.000
v -9.500 -0.000 16.500
v -9.709 -0.000 16.489
v -11.500 -0.000 14.500
v -9.916 -0.000 16.456
v -10.118 -0.000 16.402
v -10.313 -0.000 16.327
v -10.500 -0.000 16.232
v -10.676 -0.000 16.118
v -10.838 -0.000 15.986
v -10.986 -0.000 15.838
v -11.118 -0.000 15.676
v -11.232 -0.000 15.500
v -11.327 -0.000 15.313
v -11.402 -0.000 15.118
v -11.456 -0.000 14.916
v -11.489 -0.000 14.709
v -9.500 -4.000 16.500
v -9.709 -4.000 16.489
v -9.916 -4.000 16.456
v -10.118 -4.000 16.402
v -10.313 -4.000 16.327
v -10.500 -4.000 16.232
v -10.676 -4.000 16.118
v -10.838 -4.000 15.986
v -10.986 -4.000 15.838
v -11.118 -4.000 15.676
v -11.232 -4.000 15.500
v -11.327 -4.000 15.313
v -11.402 -4.000 15.118
v -11.456 -4.000 14.916
v -11.489 -4.000 14.709
v -11.500 -4.000 14.500
v -11.500 -4.000 -14.500
v -11.491 -0.250 -14.686
v -11.489 -4.000 -14.709
v -11.460 -0.250 -14.897
v -11.456 -4.000 -14.916
v -11.407 -0.250 -15.103
v -11.402 -4.000 -15.118
v -11.332 -0.250 -15.302
v -11.327 -4.000 -15.313
v -11.236 -0.250 -15.492
v -11.232 -4.000 -15.500
v -11.121 -0.250 -15.671
v -11.118 -4.000 -15.676
v -10.986 -0.250 -15.838
v -10.986 -4.000 -15.838
v -10.838 -0.250 -15.986
v -10.838 -4.000 -15.986
v -10.676 -4.000 -16.118
v -10.671 -0.250 -16.121
v -10.500 -4.000 -16.232
v -10.492 -0.250 -16.236
v -10.313 -4.000 -16.327
v -10.302 -0.250 -16.332
v -10.118 -4.000 -16.402
v -10.103 -0.250 -16.407
v -9.916 -4.000 -16.456
v -9.897 -0.250 -16.460
v -9.709 -4.000 -16.489
v -9.686 -0.250 -16.491
v 11.500 -4.000 -14.500
v 11.489 -4.000 -14.709
v 11.456 -4.000 -14.916
v 11.402 -4.000 -15.118
v 11.327 -4.000 -15.313
v 11.232 -4.000 -15.500
v 11.118 -4.000 -15.676
v 10.986 -4.000 -15.838
v 10.838 -4.000 -15.986
v 10.676 -4.000 -16.118
v 10.500 -4.000 -16.232
v 10.313 -4.000 -16.327
v 10.118 -4.000 -16.402
v 9.916 -4.000 -16.456
v 9.709 -4.000 -16.489
v 9.686 -0.250 -16.491
v 9.897 -0.250 -16.460
v 10.103 -0.250 -16.407
v 10.302 -0.250 -16.332
v 10.492 -0.250 -16.236
v 10.671 -0.250 -16.121
v 10.838 -0.250 -15.986
v 10.986 -0.250 -15.838
v 11.121 -0.250 -15.671
v 11.236 -0.250 -15.492
v 11.332 -0.250 -15.302
v 11.407 -0.250 -15.103
v 11.460 -0.250 -14.897
v 11.491 -0.250 -14.686
v 11.500 3.500 -14.500
v 11.489 3.500 -14.709
v 11.456 3.500 -14.916
v 11.402 3.500 -15.118
v 11.327 3.500 -15.313
v 11.232 3.500 -15.500
v 11.118 3.500 -15.676
v 10.986 3.500 -15.838
v 10.838 3.500 -15.986
v 10.676 3.500 -16.118
v 10.500 3.500 -16.232
v 10.313 3.500 -16.327
v 10.118 3.500 -16.402
v 9.916 3.500 -16.456
v 9.709 3.500 -16.489
v 11.500 3.500 0.000
v 9.500 3.500 0.000
v 9.500 3.500 -13.500

# Normal Array
vn 1.000 0.000 -0.000
vn 1.000 0.000 0.000
vn -1.000 0.000 0.000
vn -1.000 0.000 0.000
vn 0.000 0.000 -1.000
vn 0.000 -0.000 -1.000
vn 0.000 0.000 -1.000
vn 0.000 0.000 -1.000
vn 0.000 0.000 -1.000
vn 0.000 0.000 -1.000
vn 0.000 1.000 0.000
vn 0.000 1.000 0.000
vn 0.000 1.000 0.000
vn 0.000 1.000 0.000
vn 0.000 1.000 0.000
vn -0.000 1.000 0.000
vn 0.000 1.000 0.000
vn 0.000 1.000 0.000
vn -0.000 1.000 0.000
vn 0.000 1.000 0.000
vn 0.000 1.000 0.000
vn 0.000 1.000 0.000
vn 0.000 1.000 0.000
vn 0.000 1.000 0.000
vn 0.000 1.000 0.000
vn 0.000 1.000 0.000
vn 0.000 1.000 0.000
vn 0.000 0.000 1.000
vn 0.000 0.000 1.000
vn 0.999 -0.000 0.052
vn 0.999 0.000 0.052
vn 0.988 0.000 0.156
vn 0.988 0.000 0.156
vn 0.966 0.000 0.259
vn 0.966 0.000 0.259
vn 0.934 0.000 0.358
vn 0.934 0.000 0.358
vn 0.891 0.000 0.454
vn 0.891 0.000 0.454
vn 0.839 0.000 0.545
vn 0.839 0.000 0.545
vn 0.777 0.000 0.629
vn 0.777 0.000 0.629
vn 0.707 0.000 0.707
vn 0.707 0.000 0.707
vn 0.629 0.000 0.777
vn 0.629 0.000 0.777
vn 0.545 0.000 0.839
vn 0.545 0.000 0.839
vn 0.454 0.000 0.891
vn 0.454 0.000 0.891
vn 0.358 0.000 0.934
vn 0.358 0.000 0.934
vn 0.259 0.000 0.966
vn 0.259 0.000 0.966
vn 0.156 0.000 0.988
vn 0.156 0.000 0.988
vn 0.052 0.000 0.999
vn 0.052 0.000 0.999
vn 0.000 1.000 0.000
vn 0.000 1.000 0.000
vn 0.000 1.000 0.000
vn 0.000 1.000 0.000
vn 0.000 1.000 0.000
vn -0.000 1.000 0.000
vn 0.000 1.000 0.000
vn -0.000 1.000 0.000
vn 0.000 1.000 0.000
vn -0.000 1.000 0.000
vn -0.000 1.000 0.000
vn 0.000 1.000 0.000
vn 0.000 1.000 0.000
vn 0.000 1.000 0.000
vn -0.000 1.000 0.000
vn -0.000 1.000 0.000
vn -0.000 1.000 0.000
vn -0.000 1.000 0.000
vn 0.000 1.000 0.000
vn 0.000 1.000 0.000
vn -0.000 1.000 0.000
vn 0.000 1.000 0.000
vn 0.000 1.000 0.000
vn 0.000 1.000 0.000
vn -0.000 1.000 0.000
vn -0.000 1.000 0.000
vn 0.000 1.000 0.000
vn 0.000 1.000 0.000
vn 0.000 1.000 0.000
vn 0.000 1.000 0.000
vn -0.000 1.000 0.000
vn -0.000 1.000 0.000
vn -0.000 1.000 0.000
vn 0.000 1.000 0.000
vn 0.000 1.000 0.000
vn -0.000 1.000 0.000
vn 0.000 1.000 0.000
vn 0.000 1.000 0.000
vn 0.000 0.000 1.000
vn 0.000 0.000 1.000
vn -0.052 0.000 0.999
vn -0.052 0.000 0.999
vn -0.156 0.000 0.988
vn -0.156 0.000 0.988
vn -0.259 0.000 0.966
vn -0.259 0.000 0.966
vn -0.358 0.000 0.934
vn -0.358 0.000 0.934
vn -0.454 0.000 0.891
vn -0.454 0.000 0.891
vn -0.545 0.000 0.839
vn -0.545 0.000 0.839
vn -0.629 0.000 0.777
vn -0.629 0.000 0.777
vn -0.707 0.000 0.707
vn -0.707 0.000 0.707
vn -0.777 0.000 0.629
vn -0.777 0.000 0.629
vn -0.839 0.000 0.545
vn -0.839 0.000 0.545
vn -0.891 0.000 0.454
vn -0.891 0.000 0.454
vn -0.934 0.000 0.358
vn -0.934 0.000 0.358
vn -0.966 0.000 0.259
vn -0.966 0.000 0.259
vn -0.988 0.000 0.156
vn -0.988 0.000 0.156
vn -0.999 0.000 0.052
vn -0.999 0.000 0.052
vn -0.999 -0.000 -0.047
vn -0.999 -0.000 -0.052
vn -0.989 0.000 -0.146
vn -0.988 -0.000 -0.156
vn -0.968 0.000 -0.250
vn -0.966 -0.000 -0.259
vn -0.936 0.000 -0.352
vn -0.934 -0.000 -0.358
vn -0.893 0.000 -0.449
vn -0.891 -0.000 -0.454
vn -0.841 0.000 -0.542
vn -0.839 -0.000 -0.545
vn -0.778 0.000 -0.628
vn -0.777 -0.000 -0.629
vn -0.707 -0.000 -0.707
vn -0.707 -0.000 -0.707
vn -0.629 -0.000 -0.777
vn -0.628 0.000 -0.778
vn -0.545 -0.000 -0.839
vn -0.542 0.000 -0.841
vn -0.454 -0.000 -0.891
vn -0.449 0.000 -0.893
vn -0.358 -0.000 -0.934
vn -0.352 0.000 -0.936
vn -0.259 -0.000 -0.966
vn -0.250 0.000 -0.968
vn -0.156 -0.000 -0.988
vn -0.146 0.000 -0.989
vn -0.052 -0.000 -0.999
vn -0.047 0.000 -0.999
vn -0.052 0.000 -0.999
vn -0.146 -0.000 -0.989
vn -0.156 0.000 -0.988
vn -0.250 -0.000 -0.968
vn -0.259 0.000 -0.966
vn -0.352 -0.000 -0.936
vn -0.358 0.000 -0.934
vn -0.449 -0.000 -0.893
vn -0.454 0.000 -0.891
vn -0.542 -0.000 -0.841
vn -0.545 0.000 -0.839
vn -0.628 -0.000 -0.778
vn -0.629 0.000 -0.777
vn -0.707 0.000 -0.707
vn -0.707 0.000 -0.707
vn -0.777 0.000 -0.629
vn -0.778 -0.000 -0.628
vn -0.839 0.000 -0.545
vn -0.841 -0.000 -0.542
vn -0.891 0.000 -0.454
vn -0.893 -0.000 -0.449
vn -0.934 0.000 -0.358
vn -0.936 -0.000 -0.352
vn -0.966 0.000 -0.259
vn -0.968 -0.000 -0.250
vn -0.988 0.000 -0.156
vn -0.989 -0.000 -0.146
vn -0.999 0.000 -0.052
vn 0.000 -1.000 -0.000
vn 0.000 -1.000 0.000
vn 0.000 -1.000 -0.000
vn 0.000 -1.000 0.000
vn 0.000 -1.000 -0.000
vn 0.000 -1.000 0.000
vn 0.000 -1.000 -0.000
vn 0.000 -1.000 0.000
vn 0.000 -1.000 -0.000
vn 0.000 -1.000 0.000
vn 0.000 -1.000 -0.000
vn 0.000 -1.000 0.000
vn 0.000 -1.000 -0.000
vn 0.000 -1.000 0.000
vn 0.000 -1.000 -0.000
vn 0.000 -1.000 0.000
vn 0.000 -1.000 -0.000
vn 0.000 -1.000 0.000
vn 0.000 -1.000 -0.000
vn 0.000 -1.000 0.000
vn 0.000 -1.000 -0.000
vn 0.000 -1.000 0.000
vn 0.000 -1.000 -0.000
vn 0.000 -1.000 0.000
vn 0.000 -1.000 -0.000
vn 0.000 -1.000 -0.000
vn 0.000 -1.000 0.000
vn 0.000 -1.000 0.000
vn 0.000 -1.000 0.000
vn 0.000 -1.000 0.000
vn 0.000 -1.000 -0.000
vn 0.000 -1.000 -0.000
vn -0.000 -1.000 -0.000
vn -0.000 -1.000 -0.000
vn 0.000 -1.000 0.000
vn 0.000 -1.000 0.000
vn -0.000 -1.000 0.000
vn 0.000 -1.000 0.000
vn 0.000 -1.000 0.000
vn -0.000 -1.000 0.000
vn 0.000 -1.000 0.000
vn 0.000 -1.000 0.000
vn -0.000 -1.000 0.000
vn 0.000 -1.000 0.000
vn 0.000 -1.000 0.000
vn -0.000 -1.000 0.000
vn 0.000 -1.000 0.000
vn 0.000 -1.000 0.000
vn -0.000 -1.000 0.000
vn 0.000 -1.000 0.000
vn 0.000 -1.000 0.000
vn 0.000 -1.000 0.000
vn 0.000 -1.000 0.000
vn 0.000 -1.000 0.000
vn 0.000 -1.000 0.000
vn 0.000 -1.000 0.000
vn 0.000 -1.000 0.000
vn 0.000 -1.000 0.000
vn 0.000 -1.000 0.000
vn 0.000 -1.000 0.000
vn 0.000 -1.000 0.000
vn 0.000 -1.000 0.000
vn 0.047 0.000 -0.999
vn 0.052 -0.000 -0.999
vn 0.146 0.000 -0.989
vn 0.156 -0.000 -0.988
vn 0.250 0.000 -0.968
vn 0.259 -0.000 -0.966
vn 0.352 0.000 -0.936
vn 0.358 -0.000 -0.934
vn 0.449 0.000 -0.893
vn 0.454 -0.000 -0.891
vn 0.542 0.000 -0.841
vn 0.545 -0.000 -0.839
vn 0.628 0.000 -0.778
vn 0.629 0.000 -0.777
vn 0.707 0.000 -0.707
vn 0.707 0.000 -0.707
vn 0.777 0.000 -0.629
vn 0.778 0.000 -0.628
vn 0.839 -0.000 -0.545
vn 0.841 0.000 -0.542
vn 0.891 -0.000 -0.454
vn 0.893 0.000 -0.449
vn 0.934 -0.000 -0.358
vn 0.936 0.000 -0.352
vn 0.966 -0.000 -0.259
vn 0.968 0.000 -0.250
vn 0.988 -0.000 -0.156
vn 0.989 0.000 -0.146
vn 0.999 -0.000 -0.052
vn 0.999 0.000 -0.047
vn 0.999 0.000 -0.052
vn 0.989 -0.000 -0.146
vn 0.988 0.000 -0.156
vn 0.968 -0.000 -0.250
vn 0.966 0.000 -0.259
vn 0.936 -0.000 -0.352
vn 0.934 0.000 -0.358
vn 0.893 -0.000 -0.449
vn 0.891 0.000 -0.454
vn 0.841 -0.000 -0.542
vn 0.839 0.000 -0.545
vn 0.778 -0.000 -0.628
vn 0.777 0.000 -0.629
vn 0.707 0.000 -0.707
vn 0.707 0.000 -0.707
vn 0.629 0.000 -0.777
vn 0.628 -0.000 -0.778
vn 0.545 0.000 -0.839
vn 0.542 -0.000 -0.841
vn 0.454 0.000 -0.891
vn 0.449 -0.000 -0.893
vn 0.358 0.000 -0.934
vn 0.352 -0.000 -0.936
vn 0.259 0.000 -0.966
vn 0.250 -0.000 -0.968
vn 0.156 0.000 -0.988
vn 0.146 -0.000 -0.989
vn 0.052 0.000 -0.999
vn 1.000 0.000 0.000
vn 1.000 0.000 0.000
vn 1.000 0.000 0.000
vn 1.000 0.000 0.000
vn 0.000 -0.000 1.000
vn 0.000 -0.000 1.000
vn -1.000 0.000 -0.000
vn -1.000 0.000 0.000
vn -1.000 -0.000 -0.000
vn -1.000 -0.000 0.000
vn -1.000 0.000 -0.000
vn -1.000 0.000 0.000
vn 0.000 0.000 1.000
vn 0.000 -0.000 1.000
vn 0.000 1.000 0.000
vn 0.000 1.000 0.000
vn 0.000 1.000 0.000
vn 0.000 1.000 0.000
vn 0.000 1.000 0.000
vn 0.000 1.000 0.000
vn 0.000 1.000 0.000
vn 0.000 1.000 0.000
vn 0.000 1.000 0.000
vn 0.000 1.000 0.000
vn 0.000 1.000 0.000
vn 0.000 1.000 0.000
vn 0.000 1.000 0.000
vn 0.000 1.000 0.000
vn 0.000 1.000 0.000
vn 0.000 1.000 -0.000
vn -0.000 1.000 0.000
vn 0.000 1.000 0.000
vn 0.000 1.000 0.000

# Facets
f 1//1 3//1 2//1
f 3//2 4//2 2//2
f 5//3 7//3 6//3
f 7//4 8//4 6//4
f 6//5 9//5 5//5
f 9//6 10//6 5//6
f 10//7 2//7 5//7
f 10//8 11//8 2//8
f 11//9 12//9 2//9
f 12//10 1//10 2//10
f 3//11 1//11 13//11
f 1//12 14//12 13//12
f 1//13 12//13 14//13
f 12//14 15//14 14//14
f 12//15 16//15 15//15
f 17//16 3//16 18//16
f 3//17 19//17 18//17
f 3//18 20//18 19//18
f 20//19 3//19 21//19
f 3//20 13//20 21//20
f 16//21 12//21 22//21
f 12//22 23//22 22//22
f 12//23 24//23 23//23
f 24//24 12//24 25//24
f 12//25 26//25 25//25
f 12//26 27//26 26//26
f 27//27 12//27 28//27
f 3//28 17//28 4//28
f 17//29 29//29 4//29
f 30//30 32//30 31//30
f 32//31 33//31 31//31
f 33//32 34//32 31//32
f 33//33 35//33 34//33
f 35//34 36//34 34//34
f 35//35 37//35 36//35
f 37//36 38//36 36//36
f 37//37 39//37 38//37
f 39//38 40//38 38//38
f 39//39 41//39 40//39
f 41//40 42//40 40//40
f 41//41 43//41 42//41
f 43//42 44//42 42//42
f 44//43 45//43 42//43
f 44//44 46//44 45//44
f 46//45 47//45 45//45
f 46//46 48//46 47//46
f 48//47 49//47 47//47
f 48//48 50//48 49//48
f 48//49 51//49 50//49
f 51//50 52//50 50//50
f 51//51 53//51 52//51
f 53//52 54//52 52//52
f 53//53 55//53 54//53
f 55//54 56//54 54//54
f 55//55 57//55 56//55
f 57//56 58//56 56//56
f 57//57 59//57 58//57
f 59//58 60//58 58//58
f 59//59 61//59 60//59
f 62//60 7//60 63//60
f 7//61 4//61 63//61
f 7//62 5//62 4//62
f 5//63 2//63 4//63
f 64//64 63//64 32//64
f 63//65 61//65 32//65
f 63//66 65//66 61//66
f 33//67 32//67 35//67
f 32//68 37//68 35//68
f 32//69 39//69 37//69
f 39//70 32//70 41//70
f 32//71 43//71 41//71
f 32//72 44//72 43//72
f 44//73 32//73 46//73
f 32//74 48//74 46//74
f 32//75 51//75 48//75
f 51//76 32//76 53//76
f 32//77 55//77 53//77
f 32//78 57//78 55//78
f 57//79 32//79 59//79
f 32//80 61//80 59//80
f 66//81 65//81 67//81
f 65//82 4//82 67//82
f 65//83 63//83 4//83
f 66//84 67//84 68//84
f 67//85 69//85 68//85
f 67//86 70//86 69//86
f 70//87 67//87 71//87
f 67//88 72//88 71//88
f 67//89 73//89 72//89
f 73//90 67//90 74//90
f 67//91 75//91 74//91
f 67//92 76//92 75//92
f 76//93 67//93 77//93
f 67//94 78//94 77//94
f 67//95 79//95 78//95
f 79//96 67//96 80//96
f 67//97 4//97 29//97
f 61//98 65//98 60//98
f 65//99 81//99 60//99
f 81//100 65//100 82//100
f 65//101 66//101 82//101
f 66//102 83//102 82//102
f 66//103 68//103 83//103
f 68//104 84//104 83//104
f 68//105 69//105 84//105
f 69//106 85//106 84//106
f 69//107 70//107 85//107
f 70//108 86//108 85//108
f 70//109 71//109 86//109
f 71//110 87//110 86//110
f 71//111 72//111 87//111
f 72//112 73//112 87//112
f 73//113 88//113 87//113
f 73//114 74//114 88//114
f 74//115 89//115 88//115
f 74//116 75//116 89//116
f 75//117 90//117 89//117
f 75//118 91//118 90//118
f 75//119 76//119 91//119
f 76//120 92//120 91//120
f 76//121 77//121 92//121
f 77//122 93//122 92//122
f 77//123 78//123 93//123
f 78//124 94//124 93//124
f 78//125 79//125 94//125
f 79//126 95//126 94//126
f 79//127 80//127 95//127
f 80//128 96//128 95//128
f 80//129 67//129 96//129
f 18//130 98//130 97//130
f 98//131 99//131 97//131
f 98//132 100//132 99//132
f 100//133 101//133 99//133
f 100//134 102//134 101//134
f 102//135 103//135 101//135
f 102//136 104//136 103//136
f 104//137 105//137 103//137
f 104//138 106//138 105//138
f 106//139 107//139 105//139
f 106//140 108//140 107//140
f 108//141 109//141 107//141
f 108//142 110//142 109//142
f 110//143 111//143 109//143
f 110//144 112//144 111//144
f 112//145 113//145 111//145
f 112//146 114//146 113//146
f 112//147 115//147 114//147
f 115//148 116//148 114//148
f 115//149 117//149 116//149
f 117//150 118//150 116//150
f 117//151 119//151 118//151
f 119//152 120//152 118//152
f 119//153 121//153 120//153
f 121//154 122//154 120//154
f 121//155 123//155 122//155
f 123//156 124//156 122//156
f 123//157 125//157 124//157
f 125//158 11//158 124//158
f 125//159 12//159 11//159
f 12//160 125//160 28//160
f 125//161 123//161 28//161
f 28//162 123//162 27//162
f 123//163 121//163 27//163
f 27//164 121//164 26//164
f 121//165 119//165 26//165
f 26//166 119//166 25//166
f 119//167 117//167 25//167
f 25//168 117//168 24//168
f 117//169 115//169 24//169
f 24//170 115//170 23//170
f 115//171 112//171 23//171
f 23//172 112//172 22//172
f 112//173 110//173 22//173
f 22//174 110//174 16//174
f 110//175 15//175 16//175
f 110//176 108//176 15//176
f 108//177 14//177 15//177
f 108//178 106//178 14//178
f 106//179 13//179 14//179
f 106//180 104//180 13//180
f 104//181 21//181 13//181
f 104//182 102//182 21//182
f 102//183 20//183 21//183
f 102//184 100//184 20//184
f 100//185 19//185 20//185
f 100//186 98//186 19//186
f 98//187 18//187 19//187
f 81//188 82//188 60//188
f 82//189 58//189 60//189
f 82//190 83//190 58//190
f 83//191 56//191 58//191
f 83//192 84//192 56//192
f 84//193 54//193 56//193
f 84//194 85//194 54//194
f 85//195 52//195 54//195
f 85//196 86//196 52//196
f 86//197 50//197 52//197
f 86//198 87//198 50//198
f 87//199 49//199 50//199
f 87//200 88//200 49//200
f 88//201 47//201 49//201
f 88//202 89//202 47//202
f 89//203 45//203 47//203
f 89//204 90//204 45//204
f 90//205 42//205 45//205
f 90//206 91//206 42//206
f 91//207 40//207 42//207
f 91//208 92//208 40//208
f 92//209 38//209 40//209
f 92//210 93//210 38//210
f 93//211 36//211 38//211
f 93//212 94//212 36//212
f 94//213 96//213 36//213
f 94//214 95//214 96//214
f 96//215 30//215 36//215
f 30//216 34//216 36//216
f 30//217 31//217 34//217
f 126//218 30//218 10//218
f 30//219 11//219 10//219
f 30//220 96//220 11//220
f 96//221 97//221 11//221
f 97//222 124//222 11//222
f 97//223 122//223 124//223
f 127//224 126//224 128//224
f 126//225 129//225 128//225
f 126//226 130//226 129//226
f 130//227 126//227 131//227
f 126//228 132//228 131//228
f 126//229 133//229 132//229
f 133//230 126//230 134//230
f 126//231 135//231 134//231
f 126//232 136//232 135//232
f 136//233 126//233 137//233
f 126//234 138//234 137//234
f 126//235 139//235 138//235
f 139//236 126//236 140//236
f 126//237 10//237 140//237
f 122//238 97//238 120//238
f 97//239 118//239 120//239
f 97//240 116//240 118//240
f 116//241 97//241 114//241
f 97//242 113//242 114//242
f 97//243 111//243 113//243
f 111//244 97//244 109//244
f 97//245 107//245 109//245
f 97//246 105//246 107//246
f 105//247 97//247 103//247
f 97//248 101//248 103//248
f 97//249 99//249 101//249
f 9//250 141//250 10//250
f 141//251 140//251 10//251
f 141//252 142//252 140//252
f 142//253 139//253 140//253
f 142//254 143//254 139//254
f 143//255 138//255 139//255
f 143//256 144//256 138//256
f 144//257 137//257 138//257
f 144//258 145//258 137//258
f 145//259 136//259 137//259
f 145//260 146//260 136//260
f 146//261 135//261 136//261
f 146//262 147//262 135//262
f 147//263 134//263 135//263
f 147//264 148//264 134//264
f 148//265 133//265 134//265
f 148//266 132//266 133//266
f 148//267 149//267 132//267
f 149//268 131//268 132//268
f 149//269 150//269 131//269
f 150//270 130//270 131//270
f 150//271 151//271 130//271
f 151//272 129//272 130//272
f 151//273 152//273 129//273
f 152//274 128//274 129//274
f 152//275 153//275 128//275
f 153//276 127//276 128//276
f 153//277 154//277 127//277
f 154//278 126//278 127//278
f 154//279 155//279 126//279
f 155//280 154//280 156//280
f 154//281 153//281 156//281
f 156//282 153//282 157//282
f 153//283 152//283 157//283
f 157//284 152//284 158//284
f 152//285 151//285 158//285
f 158//286 151//286 159//286
f 151//287 150//287 159//287
f 159//288 150//288 160//288
f 150//289 149//289 160//289
f 160//290 149//290 161//290
f 149//291 148//291 161//291
f 161//292 148//292 162//292
f 148//293 147//293 162//293
f 162//294 147//294 163//294
f 147//295 164//295 163//295
f 147//296 146//296 164//296
f 146//297 165//297 164//297
f 146//298 145//298 165//298
f 145//299 166//299 165//299
f 145//300 144//300 166//300
f 144//301 167//301 166//301
f 144//302 143//302 167//302
f 143//303 168//303 167//303
f 143//304 142//304 168//304
f 142//305 169//305 168//305
f 142//306 141//306 169//306
f 141//307 9//307 169//307
f 32//308 30//308 64//308
f 30//309 126//309 64//309
f 126//310 155//310 64//310
f 155//311 170//311 64//311
f 63//312 64//312 171//312
f 64//313 170//313 171//313
f 171//314 172//314 63//314
f 172//315 62//315 63//315
f 67//316 29//316 96//316
f 29//317 97//317 96//317
f 29//318 18//318 97//318
f 18//319 29//319 17//319
f 7//320 62//320 8//320
f 62//321 172//321 8//321
f 6//322 8//322 9//322
f 8//323 157//323 9//323
f 8//324 156//324 157//324
f 9//325 157//325 169//325
f 157//326 168//326 169//326
f 157//327 158//327 168//327
f 158//328 167//328 168//328
f 158//329 166//329 167//329
f 166//330 158//330 165//330
f 158//331 164//331 165//331
f 158//332 163//332 164//332
f 163//333 158//333 162//333
f 158//334 161//334 162//334
f 158//335 160//335 161//335
f 160//336 158//336 159//336
f 156//337 8//337 155//337
f 8//338 172//338 155//338
f 172//339 170//339 155//339
f 172//340 171//340 170//340

# Thankyou for using Spin3D

